<svg xmlns="http://www.w3.org/2000/svg" viewBox="0 0 128 128">
  <defs>
    <linearGradient id="bg" x1="0" y1="0" x2="1" y2="1">
      <stop offset="0%" stop-color="#9BC4B2"/>
      <stop offset="100%" stop-color="#8FB8E8"/>
    </linearGradient>
  </defs>
  <rect width="128" height="128" rx="30" fill="url(#bg)"/>
  <g fill="none" stroke="#ffffff" stroke-width="5" stroke-linecap="round">
    <path d="M52 34c-9 0-16 7-16 15 0 2 .4 4 1.2 6C32 58 29 63 29 69c0 7 4.5 12.5 10.8 14.6C41 92 47.5 98 56 98h8V34h-12z" fill="#ffffff" fill-opacity="0.95" stroke="none"/>
    <path d="M76 34c9 0 16 7 16 15 0 2-.4 4-1.2 6C96 58 99 63 99 69c0 7-4.5 12.5-10.8 14.6C87 92 80.5 98 72 98h-8V34h12z" fill="#ffffff" fill-opacity="0.75" stroke="none"/>
  </g>
  <circle cx="100" cy="28" r="4" fill="#F4B08C"/>
  <circle cx="108" cy="38" r="2.5" fill="#F4B08C"/>
</svg>
